<?xml version="1.0"?>
<svg xmlns="http://www.w3.org/2000/svg" height="512px" viewBox="0 0 16 16" width="512px"><g><path d="m.998962 3.08026c-.303345.0476074-.600708.113892-.888977.201599l8.10669 8.10669c.182007-.598145.28186-1.23175.28186-1.88855 0-1.25806-.365234-2.42981-.986572-3.42603l1.48804-1.48804-2.58594-2.58594-1.63409 1.63409c-.55542-.264526-1.15289-.451172-1.78101-.548889l.0005493-1.0852h1.00049v-2h-4v2h.999512l-.0005493 1.08026z" transform="translate(6)" data-original="#000000" class="active-path" data-old_color="#000000" fill="#F39112"/><path d="m16 14.5859-14.5859-14.5859-1.41406 1.41406 2.08594 2.08594-1.08667 1.08667 1.48956 1.48956c-.623352.994934-.990295 2.16516-.990295 3.42377 0 3.58398 2.91602 6.5 6.5 6.5 1.81427 0 3.44672-.757568 4.62646-1.96094l1.96094 1.96094 1.41406-1.41406z" data-original="#000000" class="active-path" data-old_color="#000000" fill="#F39112"/></g> </svg>
