<?xml version="1.0"?>
<svg xmlns="http://www.w3.org/2000/svg" height="512px" viewBox="0 -50 512 512" width="512px"><g><path d="m172.535156 276.003906c-19.210937 0-34.835937 15.628906-34.835937 34.839844v1.019531h69.675781v-1.019531c0-19.210938-15.628906-34.839844-34.839844-34.839844zm0 0" data-original="#000000" class="active-path" data-old_color="#000000" fill="#68CB81"/><path d="m190.464844 228.074219c0-9.886719-8.042969-17.929688-17.929688-17.929688-9.886718 0-17.929687 8.042969-17.929687 17.929688s8.042969 17.929687 17.929687 17.929687c9.886719 0 17.929688-8.042968 17.929688-17.929687zm0 0" data-original="#000000" class="active-path" data-old_color="#000000" fill="#68CB81"/><path d="m0 135.085938v276.835937h512v-276.835937zm278.023438 55.066406h135.917968v30h-135.917968zm0 60.855468h135.917968v30h-135.917968zm0 60.855469h135.917968v30h-135.917968zm-170.324219-1.019531c0-21.816406 10.835937-41.132812 27.402343-52.890625-6.558593-8.199219-10.496093-18.585937-10.496093-29.878906 0-26.429688 21.5-47.929688 47.929687-47.929688 26.429688 0 47.929688 21.5 47.929688 47.929688 0 11.292969-3.933594 21.679687-10.492188 29.878906 16.5625 11.757813 27.402344 31.074219 27.402344 52.890625v31.019531h-129.675781zm0 0" data-original="#000000" class="active-path" data-old_color="#000000" fill="#68CB81"/><path d="m512 105.085938v-105.085938h-512v105.085938zm-421.941406-30.050782h-30.023438v-30h30.023438zm60.050781 0h-30.023437v-30h30.023437zm60.046875 0h-30.023438v-30h30.023438zm0 0" data-original="#000000" class="active-path" data-old_color="#000000" fill="#68CB81"/></g> </svg>
